# Blender 3.2.0
# www.blender.org
mtllib card_holder.mtl
o Cube
v 0.032500 -0.007500 0.018500
v 0.032500 -0.007500 -0.018500
v 0.022058 -0.007500 -0.018500
v 0.022058 -0.007500 0.018500
v 0.032500 -0.007500 0.006167
v 0.032500 -0.007500 -0.006167
v 0.032500 0.007500 -0.006167
v 0.032500 0.007500 0.006167
v 0.022058 0.007500 -0.006167
v 0.022058 0.007500 0.006167
v 0.022058 -0.007500 -0.006167
v 0.022058 -0.007500 0.006167
v 0.032500 -0.001220 -0.006167
v 0.032500 -0.001220 0.006167
v 0.022058 -0.001220 -0.006167
v 0.022058 -0.001220 0.006167
v 0.032500 0.007500 0.006167
v 0.032500 0.002500 0.018500
v 0.032500 0.007330 0.009359
v 0.032500 0.006830 0.012333
v 0.032500 0.006036 0.014888
v 0.032500 0.005000 0.016848
v 0.032500 0.003794 0.018080
v 0.032500 0.002500 -0.018500
v 0.032500 0.007500 -0.006167
v 0.032500 0.003794 -0.018080
v 0.032500 0.005000 -0.016848
v 0.032500 0.006036 -0.014888
v 0.032500 0.006830 -0.012333
v 0.032500 0.007330 -0.009359
v 0.022058 0.002500 -0.018500
v 0.022058 0.007500 -0.006167
v 0.022058 0.003794 -0.018080
v 0.022058 0.005000 -0.016848
v 0.022058 0.006036 -0.014888
v 0.022058 0.006830 -0.012333
v 0.022058 0.007330 -0.009359
v 0.022058 0.007500 0.006167
v 0.022058 0.002500 0.018500
v 0.022058 0.007330 0.009359
v 0.022058 0.006830 0.012333
v 0.022058 0.006036 0.014888
v 0.022058 0.005000 0.016848
v 0.022058 0.003794 0.018080
v 0.000000 -0.007500 -0.018500
v 0.000000 -0.007500 0.018500
v 0.000000 -0.007500 -0.006167
v 0.000000 -0.007500 0.006167
v 0.000000 0.007500 -0.006167
v 0.000000 0.007500 0.006167
v 0.000000 -0.001220 -0.006167
v 0.000000 -0.001220 0.006167
v 0.000000 0.007500 -0.006167
v 0.000000 0.007330 -0.009359
v 0.000000 0.006830 -0.012333
v 0.000000 0.006036 -0.014888
v 0.000000 0.005000 -0.016848
v 0.000000 0.003794 -0.018080
v 0.000000 0.002500 -0.018500
v 0.000000 0.007500 0.006167
v 0.000000 0.007330 0.009359
v 0.000000 0.006830 0.012333
v 0.000000 0.006036 0.014888
v 0.000000 0.005000 0.016848
v 0.000000 0.003794 0.018080
v 0.000000 0.002500 0.018500
v -0.032500 -0.007500 0.018500
v -0.032500 -0.007500 -0.018500
v -0.022058 -0.007500 -0.018500
v -0.022058 -0.007500 0.018500
v -0.032500 -0.007500 0.006167
v -0.032500 -0.007500 -0.006167
v -0.032500 0.007500 -0.006167
v -0.032500 0.007500 0.006167
v -0.022058 0.007500 -0.006167
v -0.022058 0.007500 0.006167
v -0.022058 -0.007500 -0.006167
v -0.022058 -0.007500 0.006167
v -0.032500 -0.001220 -0.006167
v -0.032500 -0.001220 0.006167
v -0.022058 -0.001220 -0.006167
v -0.022058 -0.001220 0.006167
v -0.032500 0.007500 0.006167
v -0.032500 0.002500 0.018500
v -0.032500 0.007330 0.009359
v -0.032500 0.006830 0.012333
v -0.032500 0.006036 0.014888
v -0.032500 0.005000 0.016848
v -0.032500 0.003794 0.018080
v -0.032500 0.002500 -0.018500
v -0.032500 0.007500 -0.006167
v -0.032500 0.003794 -0.018080
v -0.032500 0.005000 -0.016848
v -0.032500 0.006036 -0.014888
v -0.032500 0.006830 -0.012333
v -0.032500 0.007330 -0.009359
v -0.022058 0.002500 -0.018500
v -0.022058 0.007500 -0.006167
v -0.022058 0.003794 -0.018080
v -0.022058 0.005000 -0.016848
v -0.022058 0.006036 -0.014888
v -0.022058 0.006830 -0.012333
v -0.022058 0.007330 -0.009359
v -0.022058 0.007500 0.006167
v -0.022058 0.002500 0.018500
v -0.022058 0.007330 0.009359
v -0.022058 0.006830 0.012333
v -0.022058 0.006036 0.014888
v -0.022058 0.005000 0.016848
v -0.022058 0.003794 0.018080
vn 1.0000 -0.0000 -0.0000
vn -0.0000 -0.0000 1.0000
vn -0.0000 0.1596 0.9872
vn -0.0000 -1.0000 -0.0000
vn -0.0000 0.9996 -0.0266
vn -0.0000 1.0000 -0.0000
vn -0.0000 0.9996 0.0266
vn -0.0000 -0.0000 -1.0000
vn -0.0000 0.1596 -0.9872
vn -0.0000 0.9942 -0.1080
vn -0.0000 0.9737 -0.2279
vn -0.0000 0.9267 -0.3757
vn -0.0000 0.8184 -0.5747
vn -0.0000 0.5514 -0.8342
vn -0.0000 0.9942 0.1080
vn -0.0000 0.9737 0.2279
vn -0.0000 0.9267 0.3757
vn -0.0000 0.8184 0.5747
vn -0.0000 0.5514 0.8342
vn -1.0000 -0.0000 -0.0000
vt 0.717296 0.221791
vt 0.783199 0.674798
vt 0.116835 0.557963
vt 0.116835 0.116835
vt 0.717296 0.221791
vt 0.783199 0.000000
vt 0.565980 0.446252
vt 0.777446 0.221791
vt 0.674798 0.000000
vt 0.657145 0.221791
vt 0.674798 0.674798
vt 0.025051 0.665210
vt 0.783199 0.449865
vt 0.116835 0.410920
vt 0.783199 0.224933
vt 0.116835 0.263878
vt 0.557963 0.263878
vt 0.325202 0.783199
vt 0.777446 0.774781
vt 0.557963 0.410920
vt 0.216801 0.674798
vt 0.657145 0.773313
vt 0.325202 0.674798
vt 0.717296 0.774781
vt 0.216103 0.194220
vt 0.216801 0.674798
vt 0.717296 0.773313
vt 0.399684 0.197481
vt 0.565980 0.347561
vt 0.025051 1.034124
vt 0.674798 0.224933
vt 0.025051 0.849667
vt 0.674798 0.449865
vt 0.222554 0.596231
vt 0.777446 0.558946
vt 0.301513 0.263878
vt 0.657145 0.561560
vt 0.222554 0.721045
vt 0.301513 0.410920
vt 0.282704 0.596231
vt 0.717296 0.558946
vt 0.536180 0.194220
vt 0.399684 0.382011
vt 0.399684 0.517558
vt 0.717296 0.561560
vt 0.282704 0.721045
vt 0.584141 0.382011
vt 0.557963 0.410920
vt 0.216801 0.674798
vt 0.282704 0.596231
vt 0.410920 0.557963
vt 0.717296 0.469300
vt 0.552953 0.448978
vt 0.282704 0.628535
vt 0.538263 0.484442
vt 0.282704 0.658638
vt 0.514895 0.514895
vt 0.282704 0.684488
vt 0.717296 0.561560
vt 0.484442 0.538263
vt 0.717296 0.533351
vt 0.448978 0.552953
vt 0.717296 0.501883
vt 0.410920 0.116835
vt 0.717296 0.464619
vt 0.557963 0.263878
vt 0.325202 0.783199
vt 0.342855 0.684488
vt 0.448978 0.121845
vt 0.717296 0.497030
vt 0.484442 0.136535
vt 0.717296 0.529203
vt 0.514895 0.159903
vt 0.342855 0.596231
vt 0.717296 0.558946
vt 0.538263 0.190356
vt 0.342855 0.622081
vt 0.552953 0.225820
vt 0.342855 0.652183
vt 0.777446 0.464619
vt 0.565980 0.643634
vt 0.325202 0.674798
vt 0.403006 0.684488
vt 0.565980 0.798216
vt 0.212842 0.194220
vt 0.777446 0.497030
vt 0.565980 0.669398
vt 0.777446 0.529203
vt 0.565980 0.695162
vt 0.403006 0.596231
vt 0.777446 0.558946
vt 0.565980 0.720925
vt 0.403006 0.622081
vt 0.565980 0.746689
vt 0.403006 0.652183
vt 0.565980 0.772452
vt 0.216801 0.674798
vt 0.342855 0.596231
vt 0.025051 0.007378
vt 0.399684 0.194220
vt 0.657145 0.469300
vt 0.025051 0.296296
vt 0.342855 0.628535
vt 0.025051 0.055531
vt 0.342855 0.658638
vt 0.025051 0.103684
vt 0.342855 0.684488
vt 0.657145 0.561560
vt 0.025051 0.151837
vt 0.657145 0.533351
vt 0.025051 0.199990
vt 0.657145 0.501883
vt 0.025051 0.248143
vt 0.666455 0.446252
vt 0.212842 0.665210
vt 0.666455 0.347561
vt 0.212842 1.034124
vt 0.212842 0.849667
vt 0.216103 0.007378
vt 0.212842 0.197481
vt 0.536180 0.007378
vt 0.399684 0.194220
vt 0.212842 0.517558
vt 0.584141 0.194220
vt 0.666455 0.798216
vt 0.212842 0.007378
vt 0.666455 0.772452
vt 0.666455 0.746689
vt 0.666455 0.720925
vt 0.666455 0.695162
vt 0.666455 0.669398
vt 0.666455 0.643634
vt 0.212842 0.007378
vt 0.212842 0.194220
vt 0.212842 0.055531
vt 0.212842 0.103684
vt 0.212842 0.151837
vt 0.212842 0.199990
vt 0.212842 0.248143
vt 0.212842 0.296296
vt 0.717296 0.221791
vt 0.783199 0.674798
vt 0.116835 0.557963
vt 0.116835 0.116835
vt 0.717296 0.221791
vt 0.783199 0.000000
vt 0.565980 0.446252
vt 0.777446 0.221791
vt 0.674798 0.000000
vt 0.657145 0.221791
vt 0.674798 0.674798
vt 0.025051 0.665210
vt 0.783199 0.449865
vt 0.116835 0.410920
vt 0.783199 0.224933
vt 0.116835 0.263878
vt 0.557963 0.263878
vt 0.325202 0.783199
vt 0.777446 0.774781
vt 0.557963 0.410920
vt 0.216801 0.674798
vt 0.657145 0.773313
vt 0.325202 0.674798
vt 0.717296 0.774781
vt 0.216103 0.194220
vt 0.216801 0.674798
vt 0.717296 0.773313
vt 0.399684 0.197481
vt 0.565980 0.347561
vt 0.025051 1.034124
vt 0.674798 0.224933
vt 0.025051 0.849667
vt 0.674798 0.449865
vt 0.222554 0.596231
vt 0.777446 0.558946
vt 0.301513 0.263878
vt 0.657145 0.561560
vt 0.222554 0.721045
vt 0.301513 0.410920
vt 0.282704 0.596231
vt 0.717296 0.558946
vt 0.536180 0.194220
vt 0.399684 0.382011
vt 0.399684 0.517558
vt 0.717296 0.561560
vt 0.282704 0.721045
vt 0.584141 0.382011
vt 0.557963 0.410920
vt 0.216801 0.674798
vt 0.282704 0.596231
vt 0.410920 0.557963
vt 0.717296 0.469300
vt 0.552953 0.448978
vt 0.282704 0.628535
vt 0.538263 0.484442
vt 0.282704 0.658638
vt 0.514895 0.514895
vt 0.282704 0.684488
vt 0.717296 0.561560
vt 0.484442 0.538263
vt 0.717296 0.533351
vt 0.448978 0.552953
vt 0.717296 0.501883
vt 0.410920 0.116835
vt 0.717296 0.464619
vt 0.557963 0.263878
vt 0.325202 0.783199
vt 0.342855 0.684488
vt 0.448978 0.121845
vt 0.717296 0.497030
vt 0.484442 0.136535
vt 0.717296 0.529203
vt 0.514895 0.159903
vt 0.342855 0.596231
vt 0.717296 0.558946
vt 0.538263 0.190356
vt 0.342855 0.622081
vt 0.552953 0.225820
vt 0.342855 0.652183
vt 0.777446 0.464619
vt 0.565980 0.643634
vt 0.325202 0.674798
vt 0.403006 0.684488
vt 0.565980 0.798216
vt 0.212842 0.194220
vt 0.777446 0.497030
vt 0.565980 0.669398
vt 0.777446 0.529203
vt 0.565980 0.695162
vt 0.403006 0.596231
vt 0.777446 0.558946
vt 0.565980 0.720925
vt 0.403006 0.622081
vt 0.565980 0.746689
vt 0.403006 0.652183
vt 0.565980 0.772452
vt 0.216801 0.674798
vt 0.342855 0.596231
vt 0.025051 0.007378
vt 0.399684 0.194220
vt 0.657145 0.469300
vt 0.025051 0.296296
vt 0.342855 0.628535
vt 0.025051 0.055531
vt 0.342855 0.658638
vt 0.025051 0.103684
vt 0.342855 0.684488
vt 0.657145 0.561560
vt 0.025051 0.151837
vt 0.657145 0.533351
vt 0.025051 0.199990
vt 0.657145 0.501883
vt 0.025051 0.248143
s 1
usemtl cedar
f 2/4/1 24/64/1 26/69/1 27/71/1 28/73/1 29/76/1 30/78/1 25/66/1 7/17/1 13/36/1 6/16/1
f 1/1/2 18/52/3 39/101/3 4/10/2
f 12/33/4 5/13/4 1/2/4 4/11/4
f 5/14/1 14/39/1 8/20/1 17/48/1 19/53/1 20/55/1 21/57/1 22/60/1 23/62/1 18/51/1 1/3/1
f 25/67/5 32/82/5 9/23/6 7/18/6
f 8/21/6 10/26/6 38/97/7 17/49/7
f 3/8/8 31/80/9 24/65/9 2/5/8
f 10/27/8 8/22/8 14/37/8 16/45/8
f 3/9/4 2/6/4 6/15/4 11/31/4
f 11/31/4 6/15/4 5/13/4 12/33/4
f 13/34/6 15/40/6 16/46/6 14/38/6
f 7/19/2 9/24/2 15/41/2 13/35/2
f 6/16/1 13/36/1 14/39/1 5/14/1
f 32/83/5 25/68/5 30/79/10 37/95/10
f 37/95/10 30/79/10 29/77/11 36/93/11
f 36/93/11 29/77/11 28/74/12 35/90/12
f 35/91/12 28/75/12 27/72/13 34/88/13
f 34/88/13 27/72/13 26/70/14 33/86/14
f 33/86/14 26/70/14 24/65/9 31/80/9
f 17/50/7 38/98/7 40/103/15 19/54/15
f 19/54/15 40/103/15 41/105/16 20/56/16
f 20/56/16 41/105/16 42/107/17 21/58/17
f 21/59/17 42/108/17 43/110/18 22/61/18
f 22/61/18 43/110/18 44/112/19 23/63/19
f 23/63/19 44/112/19 39/101/3 18/52/3
f 68/144/20 72/156/20 79/176/20 73/157/20 91/206/20 96/218/20 95/216/20 94/213/20 93/211/20 92/209/20 90/204/20
f 67/141/2 70/150/2 105/241/3 84/192/3
f 78/173/4 70/151/4 67/142/4 71/153/4
f 71/154/20 67/143/20 84/191/20 89/202/20 88/200/20 87/197/20 86/195/20 85/193/20 83/188/20 74/160/20 80/179/20
f 91/207/5 73/158/6 75/163/6 98/222/5
f 74/161/6 83/189/7 104/237/7 76/166/6
f 69/148/8 68/145/8 90/205/9 97/220/9
f 76/167/8 82/185/8 80/177/8 74/162/8
f 69/149/4 77/171/4 72/155/4 68/146/4
f 77/171/4 78/173/4 71/153/4 72/155/4
f 79/174/6 80/178/6 82/186/6 81/180/6
f 73/159/2 79/175/2 81/181/2 75/164/2
f 72/156/20 71/154/20 80/179/20 79/176/20
f 98/223/5 103/235/10 96/219/10 91/208/5
f 103/235/10 102/233/11 95/217/11 96/219/10
f 102/233/11 101/230/12 94/214/12 95/217/11
f 101/231/12 100/228/13 93/212/13 94/215/12
f 100/228/13 99/226/14 92/210/14 93/212/13
f 99/226/14 97/220/9 90/205/9 92/210/14
f 83/190/7 85/194/15 106/243/15 104/238/7
f 85/194/15 86/196/16 107/245/16 106/243/15
f 86/196/16 87/198/17 108/247/17 107/245/16
f 87/199/17 88/201/18 109/250/18 108/248/17
f 88/201/18 89/203/19 110/252/19 109/250/18
f 89/203/19 84/192/3 105/241/3 110/252/19
usemtl pine
f 48/118/4 12/32/4 4/12/4 46/115/4
f 45/114/4 3/7/4 11/29/4 47/116/4
f 47/117/4 11/30/4 12/32/4 48/118/4
f 45/114/8 59/132/9 31/81/9 3/7/8
f 50/120/8 10/28/8 16/44/8 52/123/8
f 53/125/5 32/84/5 37/96/10 54/127/10
f 54/127/10 37/96/10 36/94/11 55/128/11
f 55/128/11 36/94/11 35/92/12 56/129/12
f 56/129/12 35/92/12 34/89/13 57/130/13
f 57/130/13 34/89/13 33/87/14 58/131/14
f 58/131/14 33/87/14 31/81/9 59/132/9
f 44/113/19 65/139/19 66/140/3 39/102/3
f 43/111/18 64/138/18 65/139/19 44/113/19
f 42/109/17 63/137/17 64/138/18 43/111/18
f 41/106/16 62/136/16 63/137/17 42/109/17
f 40/104/15 61/135/15 62/136/16 41/106/16
f 38/99/7 60/133/7 61/135/15 40/104/15
f 9/25/2 49/119/2 51/121/2 15/42/2
f 15/43/6 51/122/6 52/124/6 16/47/6
f 32/85/5 53/126/5 49/119/6 9/25/6
f 4/12/2 39/102/3 66/140/3 46/115/2
f 10/28/6 50/120/6 60/134/7 38/100/7
f 48/118/4 46/115/4 70/152/4 78/172/4
f 45/114/4 47/116/4 77/169/4 69/147/4
f 47/117/4 48/118/4 78/172/4 77/170/4
f 45/114/8 69/147/8 97/221/9 59/132/9
f 50/120/8 52/123/8 82/184/8 76/168/8
f 53/125/5 54/127/10 103/236/10 98/224/5
f 54/127/10 55/128/11 102/234/11 103/236/10
f 55/128/11 56/129/12 101/232/12 102/234/11
f 56/129/12 57/130/13 100/229/13 101/232/12
f 57/130/13 58/131/14 99/227/14 100/229/13
f 58/131/14 59/132/9 97/221/9 99/227/14
f 110/253/19 105/242/3 66/140/3 65/139/19
f 109/251/18 110/253/19 65/139/19 64/138/18
f 108/249/17 109/251/18 64/138/18 63/137/17
f 107/246/16 108/249/17 63/137/17 62/136/16
f 106/244/15 107/246/16 62/136/16 61/135/15
f 104/239/7 106/244/15 61/135/15 60/133/7
f 75/165/2 81/182/2 51/121/2 49/119/2
f 81/183/6 82/187/6 52/124/6 51/122/6
f 98/225/5 75/165/6 49/119/6 53/126/5
f 70/152/2 46/115/2 66/140/3 105/242/3
f 76/168/6 104/240/7 60/134/7 50/120/6
